<svg id="svg" version="1.1" viewBox="0 0 254.85148514851488 300" width="254.85148514851488" height="300" xmlns="http://www.w3.org/2000/svg"><svg xmlns="http://www.w3.org/2000/svg"><defs><clipPath id="clip-1"><rect x="0" y="0" transform="scale(0.14851,0.14851)" width="1716" height="2020" fill="none"/></clipPath></defs><g clip-path="url(#clip-1)" fill="none" fill-rule="nonzero" stroke="none" stroke-width="1" stroke-linecap="butt" stroke-linejoin="miter" stroke-miterlimit="10" stroke-dasharray="" stroke-dashoffset="0" font-family="none" font-weight="none" font-size="none" text-anchor="none" style="mix-blend-mode: normal"><path d="M128.52104,1.64315c8.48762,18.62333 22.44431,22.88898 36.22946,36.36759c8.16832,7.98653 14.67475,18.22158 16.62772,29.55327c0.48564,2.81243 0.95792,5.19371 0.9995,8.0948c0.1604,1.85005 0.31188,6.52337 -0.01634,8.3103c-0.17079,8.5647 -3.12772,18.11124 -7.01436,25.70703c-1.02772,2.0097 -6.07574,9.44406 -6.05198,10.6053c0.66683,0.38703 3.32822,-1.39975 4.13614,-1.82302c2.27079,-1.19436 4.61584,-2.24139 7.0203,-3.1347c12.95347,-4.67332 29.57376,-4.00574 41.96287,2.15168c13.97673,6.88767 24.58663,19.11891 29.43119,33.92807c1.17475,3.52426 1.74059,6.35198 2.23366,10.03366c0.12921,0.95792 0.53614,4.85792 0.77228,5.57822v4.88317c-0.42921,1.41535 -0.67871,6.3505 -1.05446,8.39851c-0.55099,3.00149 -0.98762,4.54455 -1.99752,7.50594c-3.88515,11.45347 -11.26485,21.40099 -21.0995,28.44208c-10.72723,7.76733 -24.06386,12.00594 -37.27129,11.7104c-3.40842,-0.07574 -6.7203,-0.07723 -10.1005,-0.61634c0.74109,19.89208 -9.3698,38.6198 -26.40891,48.91188c-2.3198,1.42723 -4.9901,2.90495 -7.45248,4.19554c-5.68916,2.97921 -12.42639,5.61386 -16.88599,10.39158c-1.50564,1.61287 -3.05658,4.61139 -4.08104,6.60149c-1.61109,-2.34208 -2.86366,-5.44307 -5.03436,-7.44505c-4.95386,-4.35 -11.60584,-7.33515 -17.49668,-10.29356c-20.69688,-10.3901 -33.03446,-28.80297 -32.54851,-52.46733c-1.58955,0.38465 -5.45569,0.64158 -7.12455,0.71139c-10.04658,0.42624 -18.57535,-0.91337 -27.87653,-4.75545c-10.98297,-4.46584 -20.35559,-12.15297 -26.88397,-22.05c-3.69352,-5.53663 -6.29797,-11.32426 -7.88387,-17.81584c-2.88942,-12.0297 -1.90531,-24.66386 2.81191,-36.10054c13.31479,-31.82688 49.78573,-44.56158 79.66291,-27.29777c0.39119,0.22604 0.72995,0.28708 1.12559,0.12015c0.33163,-1.24797 -3.18713,-5.63941 -4.09842,-7.30975c-3.30089,-6.05035 -6.03267,-12.24847 -7.48262,-19.00396c-1.00054,-4.79495 -1.47698,-9.68421 -1.42114,-14.58208c0.04649,-19.35089 8.62351,-34.02639 23.35634,-46.2346c9.81787,-8.13535 21.52916,-14.82802 28.04703,-26.1732c0.97916,-1.70455 1.7945,-3.43932 2.86812,-5.09884zM126.18163,154.05743c0.53629,-3.94604 -0.58886,-12.89807 -1.26639,-16.9901c-1.51871,-9.17332 -4.22926,-18.44317 -3.5951,-27.86985c0.28485,-4.34376 1.64985,-9.74896 3.11198,-13.8453c0.50896,-1.42574 1.99515,-4.48218 2.25059,-5.61193c-0.79545,-0.51267 -1.6549,-0.75252 -2.45866,-1.23995c-2.16594,-1.31347 -4.11371,-4.1697 -4.5897,-6.62228c-1.58837,-8.1851 2.69243,-13.80936 8.52371,-18.93535c0.60045,-0.06149 0.86762,0.10752 1.34094,0.53436c6.20287,5.595 11.3853,15.25381 5.4202,22.89089c-1.1703,1.49822 -3.16292,2.78762 -5.02842,3.28262l0.09059,0.17005c2.8546,5.42718 5.29693,14.63985 5.45569,20.7753c0.33193,12.83183 -4.57916,25.48025 -4.87441,38.34817c-0.02079,0.90594 -0.33995,3.58515 0.04842,4.26238c1.05238,0.00149 3.80436,-4.79554 4.52822,-5.7955c3.57802,-4.94302 7.24351,-9.92688 11.12896,-14.64297c10.57381,-12.83347 22.30054,-25.96693 25.7253,-42.76619c3.78267,-19.17609 -3.03861,-36.11955 -17.29901,-49.07673c-7.89772,-7.17579 -17.20901,-12.78282 -24.08287,-20.90896c-0.41198,-0.49574 -1.7299,-2.38084 -2.19847,-2.54985c-1.79584,2.03822 -3.60401,4.33307 -5.54272,6.18936c-5.9899,5.72748 -12.80213,10.215 -19.01376,15.72282c-13.22035,11.72228 -20.92248,24.93936 -19.98356,42.9496c1.00916,19.36084 11.69317,32.29069 23.48436,46.69693l8.89589,11.05218c1.81441,2.27406 3.89851,5.35738 5.58891,7.75738c1.4997,2.12985 2.52446,4.15856 4.33931,6.22292zM74.18287,219.01485c1.34599,-7.5 4.14847,-14.66139 8.24896,-21.08317c0.86881,-1.39158 1.83267,-2.72228 2.8846,-3.98168c0.67114,-0.79158 3.29361,-3.49901 3.26153,-4.35891c-0.91277,-0.92673 -4.34376,-0.32525 -5.70772,-0.2198c-1.76332,0.13366 -3.53302,0.16634 -5.3002,0.09653c-10.67302,-0.81535 -20.52119,-3.89406 -27.92064,-12.09505c-2.02812,-2.24851 -8.03807,-11.42228 -0.40975,-10.74356c2.02233,0.27475 3.92881,1.31436 5.55475,2.45941c6.6052,4.64703 9.46708,12.05495 17.1505,15.40545c14.61134,6.3698 28.15129,-1.63515 40.40198,-9.23762c-4.27901,-6.26733 -9.59807,-14.57673 -12.61871,-21.52574c-7.78946,-17.91861 -14.1205,-30.23287 -35.04015,-34.16792c-2.76757,-0.52916 -5.59069,-0.7099 -8.40327,-0.53792c-12.88188,0.58114 -24.99059,6.31188 -33.60743,15.9052c-18.57082,20.54718 -14.69587,52.52688 5.65277,70.30262c11.66035,10.18515 26.5246,14.87376 41.93064,14.08812c1.30856,-0.06535 2.6795,-0.25396 3.92213,-0.30594zM144.30416,175.26535c2.1499,1.31733 4.30723,2.47129 6.49188,3.72624c6.31485,3.62822 12.56733,7.09752 19.98119,7.64703c6.6802,0.61782 13.44802,-0.70248 18.69208,-5.15198c5.61386,-4.76436 9.3802,-12.05644 16.75842,-14.52624c1.86683,-0.62525 3.50941,-0.47079 4.72723,1.20743c0.27921,1.71386 0.23317,2.9896 -0.61634,4.55347c-6.46188,11.89901 -21.07129,16.82525 -33.86139,16.76436c-1.97525,-0.04901 -7.15693,-1.01584 -8.15644,0.65792c0.66238,1.21634 1.62475,2.20099 2.52624,3.23911c6.16931,7.11238 10.18812,16.6099 11.78168,25.81188c16.56238,1.18218 32.53812,-2.60198 45.27921,-13.63663c10.65594,-9.06535 17.17723,-22.06485 18.07426,-36.02525c0.83614,-12.44851 -3.27178,-24.72267 -11.43119,-34.1605c-8.71782,-10.03916 -23.14604,-16.94376 -36.54505,-16.34525c-11.46683,0.44985 -21.63861,4.81188 -29.30792,13.37673c-4.97228,5.55252 -8.03614,13.66946 -11.23515,20.40921c-2.92871,6.29554 -6.33713,12.35644 -10.19733,18.12921c-0.80688,1.21337 -2.0951,3.23614 -2.96139,4.32327zM137.16119,169.65594c4.74089,-7.61436 8.26871,-15.70099 11.97594,-23.84748c0.27772,-0.61307 1.91287,-3.94663 1.83416,-4.35817l-0.12475,-0.1151c-1.67228,2.05025 -3.96446,4.42871 -5.48718,6.345c-3.69683,4.65297 -9.82752,12.39653 -12.0903,17.86634c0.72594,0.82277 1.46703,1.63069 2.22267,2.42525c0.48535,0.47525 1.25569,1.19257 1.66946,1.68416zM136.22287,171.14703c-0.58946,-0.57772 -3.35851,-3.50198 -3.87624,-3.6995c-0.5296,2.0302 -2.02218,7.65594 -0.95941,9.49752c0.86465,0.42772 1.33901,-0.5495 1.79792,-1.19406zM120.54282,171.32079c1.12262,1.65 1.99129,3.27327 3.19708,4.88168c0.36401,0.46337 0.62851,0.9297 1.15619,1.12277c1.75025,-0.34455 0.27861,-8.57525 -0.60847,-9.4797l-0.15386,-0.03713c-1.29327,1.06782 -2.49446,2.24257 -3.59094,3.51238zM119.50262,169.5802c0.50673,-0.7396 1.23653,-1.31733 1.91525,-1.91287c0.6401,-0.69505 1.32015,-1.46436 1.97896,-2.13267c-3.58678,-6.91485 -7.60901,-12.82723 -12.73337,-18.70589c-0.94203,-1.08074 -3.2299,-3.62584 -4.39396,-4.32772c0.23361,1.15946 1.67985,4.27129 2.2197,5.47649c2.69718,6.0205 5.61252,11.97743 8.71559,17.80069c0.70723,1.32772 1.58406,2.53812 2.29782,3.80198zM82.23535,217.4495c2.43757,-0.60743 4.83431,-1.36782 7.17609,-2.27822c11.73074,-4.84307 21.80064,-12.79307 30.13337,-22.28317c1.2245,-1.39455 2.33673,-2.8203 3.51624,-4.24604c-2.01891,-2.09257 -4.0197,-4.64257 -5.89262,-6.87772c-0.68347,-0.81683 -3.06861,-4.24604 -3.63683,-4.73317c-4.05891,2.7297 -8.23946,5.20099 -12.15297,8.14307c-9.84193,7.40198 -17.92455,19.84158 -19.14327,32.27525zM124.96515,281.26188c0.22144,-1.50594 0.57193,-2.99109 0.76886,-4.49554c0.98361,-7.50891 1.57693,-15.00297 2.00554,-22.55941c0.06327,-1.11535 0.10233,-2.69851 0.36802,-3.74703l0.16559,-0.1203c0.42876,0.37723 0.64515,1.68564 0.64604,2.25c0.00891,5.87673 0.68955,11.60347 1.3696,17.42673c0.42653,3.65347 0.64559,7.35446 1.46035,10.97673l0.18683,0.13218l0.47317,-0.24059c5.43787,-3.81238 11.49282,-6.90891 17.15272,-10.60099c12.59554,-8.21436 21.75,-20.47426 24.58218,-35.38515c0.64752,-3.41436 0.68317,-6.30446 1.15099,-9.43812c-1.46881,-0.34604 -3.10693,-0.98168 -4.55644,-1.4599c-10.51782,-3.47525 -21.44703,-10.52822 -29.59752,-18.03564c-1.79777,-1.66782 -3.5501,-3.38317 -5.25475,-5.14455c-1.36307,-1.41386 -2.94802,-3.17525 -4.4348,-4.4005c-0.64307,3.88663 -2.45658,31.19703 -3.00252,31.99307l-0.21327,-0.04158c-0.46545,-0.74257 -1.12574,-12.70248 -1.33946,-14.79208c-0.47629,-4.65594 -0.96535,-10.15396 -1.32728,-14.88861c-0.03713,-0.6104 -0.10426,-2.18168 -0.28604,-2.70743c-1.5701,2.0005 -3.6701,3.95941 -5.42257,5.81733c-9.64277,10.22525 -24.39995,20.11782 -38.24153,23.63614c0.19797,2.91683 0.33624,5.42376 0.83391,8.30792c2.04787,12.10099 8.23307,23.11485 17.4995,31.16287c4.68223,4.08267 10.17965,7.39604 15.51416,10.55792c3.09861,1.83564 6.5954,3.6802 9.49871,5.79653zM174.58663,217.59653c-1.42574,-12.49901 -8.74752,-24.30891 -18.60743,-31.92178c-2.5099,-1.9396 -5.81881,-3.78119 -8.49787,-5.58267c-0.80332,-0.54059 -3.8048,-2.85594 -4.43718,-3.13218c-2.24376,3.51535 -6.63104,8.76683 -9.56926,11.60792c2.10059,2.25891 3.93579,4.80743 6.20495,7.10347c8.48881,8.58713 16.57559,15.07574 27.85233,19.55495c2.68069,1.05891 4.47921,1.5 7.05446,2.3703z" fill="#e1ab1d"/></g></svg></svg>